<?xml version="1.0" standalone="no"?><!DOCTYPE svg PUBLIC "-//W3C//DTD SVG 1.1//EN" "http://www.w3.org/Graphics/SVG/1.1/DTD/svg11.dtd"><svg t="1699576994242" class="icon" viewBox="0 0 1024 1024" version="1.1" xmlns="http://www.w3.org/2000/svg" p-id="5719" xmlns:xlink="http://www.w3.org/1999/xlink" width="200" height="200"><path d="M514.133333 938.666667c-21.192533 0-37.085867-10.666667-47.68-26.666667L254.5408 618.666667C217.4592 560 196.266667 485.333333 196.266667 416 201.565867 234.666667 339.306667 85.333333 508.834133 85.333333h5.2992c174.826667 0 317.866667 149.333333 317.866667 336 0 74.666667-21.192533 144-68.872533 202.666667l-201.314134 288c-10.594133 16-26.487467 26.666667-47.68 26.666667z m0-806.784c-146.530133 0-265.924267 130.56-271.351466 282.88 0 65.28 16.2816 125.115733 54.272 174.08l211.652266 299.2c5.4272 5.44 5.4272 5.44 10.8544 0l206.225067-293.76c37.9904-48.964267 59.6992-108.8 59.6992-174.08 0-157.764267-119.394133-288.324267-271.351467-288.324267z m0 162.901333c51.170133 0 93.034667 41.898667 93.034667 93.098667s-41.864533 93.085867-93.034667 93.085866-93.034667-41.890133-93.034666-93.090133c0-51.2 41.864533-93.090133 93.034666-93.090133z" fill="#d81e06" p-id="5720"></path></svg>