<?xml version="1.0" standalone="no"?><!DOCTYPE svg PUBLIC "-//W3C//DTD SVG 1.1//EN" "http://www.w3.org/Graphics/SVG/1.1/DTD/svg11.dtd"><svg t="1699579557813" class="icon" viewBox="0 0 1024 1024" version="1.1" xmlns="http://www.w3.org/2000/svg" p-id="19559" xmlns:xlink="http://www.w3.org/1999/xlink" width="200" height="200"><path d="M682.666667 507.733333c25.6 0 42.666667-17.066667 42.666666-42.666666s-17.066667-42.666667-42.666666-42.666667h-68.266667l98.133333-98.133333c17.066667-17.066667 17.066667-42.666667 0-59.733334s-42.666667-17.066667-59.733333 0L512 405.333333 371.2 264.533333c-17.066667-17.066667-42.666667-17.066667-59.733333 0s-17.066667 42.666667 0 59.733334l98.133333 98.133333H341.333333c-25.6 0-42.666667 17.066667-42.666666 42.666667s17.066667 42.666667 42.666666 42.666666h128v76.8H341.333333c-25.6 0-42.666667 17.066667-42.666666 42.666667s17.066667 42.666667 42.666666 42.666667h128v136.533333c0 25.6 17.066667 42.666667 42.666667 42.666667s42.666667-17.066667 42.666667-42.666667v-136.533333h128c25.6 0 42.666667-17.066667 42.666666-42.666667s-17.066667-42.666667-42.666666-42.666667h-128v-76.8h128z" fill="#F7270B" p-id="19560"></path><path d="M512 1024C230.4 1024 0 793.6 0 512S230.4 0 512 0s512 230.4 512 512-230.4 512-512 512z m0-938.666667C277.333333 85.333333 85.333333 277.333333 85.333333 512s192 426.666667 426.666667 426.666667 426.666667-192 426.666667-426.666667S746.666667 85.333333 512 85.333333z" fill="#F7270B" p-id="19561"></path></svg>