<?xml version="1.0" standalone="no"?><!DOCTYPE svg PUBLIC "-//W3C//DTD SVG 1.1//EN" "http://www.w3.org/Graphics/SVG/1.1/DTD/svg11.dtd"><svg t="1699580222790" class="icon" viewBox="0 0 1251 1024" version="1.1" xmlns="http://www.w3.org/2000/svg" p-id="22256" xmlns:xlink="http://www.w3.org/1999/xlink" width="244.3359375" height="200"><path d="M1182.151111 56.888889a12.515556 12.515556 0 0 1 12.515556 12.515555v145.635556a12.515556 12.515556 0 0 1-12.515556 12.515556H69.404444A12.515556 12.515556 0 0 1 56.888889 215.04V69.404444A12.515556 12.515556 0 0 1 69.404444 56.888889h1112.746667m0-56.888889H69.404444A69.404444 69.404444 0 0 0 0 69.404444v145.635556A69.404444 69.404444 0 0 0 69.404444 284.444444h1112.746667A69.404444 69.404444 0 0 0 1251.555556 215.04V69.404444A69.404444 69.404444 0 0 0 1182.151111 0zM995.555556 398.222222H227.555556v56.888889h768v-56.888889z" fill="#F7270B" p-id="22257"></path><path d="M256 227.555556a28.444444 28.444444 0 0 0-28.444444 28.444444v739.555556a28.444444 28.444444 0 0 0 56.888888 0V256a28.444444 28.444444 0 0 0-28.444444-28.444444zM967.111111 227.555556a28.444444 28.444444 0 0 0-28.444444 28.444444v739.555556a28.444444 28.444444 0 0 0 56.888889 0V256a28.444444 28.444444 0 0 0-28.444445-28.444444z" fill="#F7270B" p-id="22258"></path></svg>