<?xml version="1.0" encoding="UTF-8" standalone="no"?>
<svg
   t="1699580222790"
   class="icon"
   viewBox="0 0 1251 1024"
   version="1.1"
   p-id="22256"
   width="244.3359375"
   height="200"
   id="svg2"
   sodipodi:docname="desk4.svg"
   inkscape:version="1.3 (0e150ed, 2023-07-21)"
   xmlns:inkscape="http://www.inkscape.org/namespaces/inkscape"
   xmlns:sodipodi="http://sodipodi.sourceforge.net/DTD/sodipodi-0.dtd"
   xmlns="http://www.w3.org/2000/svg"
   xmlns:svg="http://www.w3.org/2000/svg">
  <defs
     id="defs2" />
  <sodipodi:namedview
     id="namedview2"
     pagecolor="#ffffff"
     bordercolor="#000000"
     borderopacity="0.25"
     inkscape:showpageshadow="2"
     inkscape:pageopacity="0.0"
     inkscape:pagecheckerboard="0"
     inkscape:deskcolor="#d1d1d1"
     inkscape:zoom="1.18"
     inkscape:cx="122.45763"
     inkscape:cy="100"
     inkscape:window-width="1328"
     inkscape:window-height="451"
     inkscape:window-x="0"
     inkscape:window-y="38"
     inkscape:window-maximized="0"
     inkscape:current-layer="svg2" />
  <path
     d="M1182.151111 56.888889a12.515556 12.515556 0 0 1 12.515556 12.515555v145.635556a12.515556 12.515556 0 0 1-12.515556 12.515556H69.404444A12.515556 12.515556 0 0 1 56.888889 215.04V69.404444A12.515556 12.515556 0 0 1 69.404444 56.888889h1112.746667m0-56.888889H69.404444A69.404444 69.404444 0 0 0 0 69.404444v145.635556A69.404444 69.404444 0 0 0 69.404444 284.444444h1112.746667A69.404444 69.404444 0 0 0 1251.555556 215.04V69.404444A69.404444 69.404444 0 0 0 1182.151111 0zM995.555556 398.222222H227.555556v56.888889h768v-56.888889z"
     fill="#F7270B"
     p-id="22257"
     id="path1"
     style="fill:#241c1c" />
  <path
     d="M256 227.555556a28.444444 28.444444 0 0 0-28.444444 28.444444v739.555556a28.444444 28.444444 0 0 0 56.888888 0V256a28.444444 28.444444 0 0 0-28.444444-28.444444zM967.111111 227.555556a28.444444 28.444444 0 0 0-28.444444 28.444444v739.555556a28.444444 28.444444 0 0 0 56.888889 0V256a28.444444 28.444444 0 0 0-28.444445-28.444444z"
     fill="#F7270B"
     p-id="22258"
     id="path2"
     style="fill:#241c1c" />
</svg>
