<?xml version="1.0" standalone="no"?><!DOCTYPE svg PUBLIC "-//W3C//DTD SVG 1.1//EN" "http://www.w3.org/Graphics/SVG/1.1/DTD/svg11.dtd"><svg t="1699579909044" class="icon" viewBox="0 0 1024 1024" version="1.1" xmlns="http://www.w3.org/2000/svg" p-id="20885" xmlns:xlink="http://www.w3.org/1999/xlink" width="200" height="200"><path d="M639.75 56c17.496 0 31.712 14.042 31.995 31.47l0.004 0.53v179.999l95.25 0.001c17.496 0 31.713 14.042 31.996 31.47l0.004 0.53v212c0 147.199-111.18 268.716-254.499 284.634V936c0 17.673-14.327 32-32 32-17.497 0-31.714-14.042-31.996-31.47l-0.005-0.53V796.633C337.332 780.727 226 659.363 226 512V300c0-17.673 14.327-32 32-32l95.249-0.001V88c0-17.673 14.328-32 32-32 17.497 0 31.714 14.042 31.996 31.47l0.005 0.53-0.001 179.999h190.5V88c0-17.673 14.327-32 32-32z m-0.211 275.998l-254.077 0.001-0.212 0.001-0.211-0.002-95.039 0.001V512c0 121.597 97.631 220.406 218.82 222.37l3.609 0.029 3.876-0.032 3.517-0.085c118.418-3.82 213.244-100.07 215.148-218.645l0.029-3.637V331.999H639.96l-0.212 0.001-0.21-0.002z" fill="#F0E041" p-id="20886"></path></svg>