<?xml version="1.0" standalone="no"?><!DOCTYPE svg PUBLIC "-//W3C//DTD SVG 1.1//EN" "http://www.w3.org/Graphics/SVG/1.1/DTD/svg11.dtd"><svg t="1699577073480" class="icon" viewBox="0 0 1024 1024" version="1.1" xmlns="http://www.w3.org/2000/svg" p-id="9966" xmlns:xlink="http://www.w3.org/1999/xlink" width="200" height="200"><path d="M960 938.666667h-21.333333v-89.753334c9.846667-4.206667 18.793333-11.293333 25.906666-20.773333 10.806667-14.413333 16.76-33.246667 16.76-53.026667 0-19-5.546667-49.873333-13.48-75.08-4.746667-15.06-10.06-27.373333-15.793333-36.6-9.666667-15.546667-21.333333-23.433333-34.726667-23.433333s-25.06 7.886667-34.726666 23.433333c-5.733333 9.226667-11.046667 21.54-15.793334 36.6-7.933333 25.206667-13.48 56.08-13.48 75.08 0 19.78 5.953333 38.613333 16.76 53.026667 7.113333 9.48 16.06 16.566667 25.906667 20.773333V938.666667H512V298.666667h384v277.333333a21.333333 21.333333 0 0 0 42.666667 0V277.333333a21.333333 21.333333 0 0 0-21.333334-21.333333h-21.333333v-64a21.333333 21.333333 0 0 0-21.333333-21.333333H576a21.333333 21.333333 0 0 0-21.333333 21.333333v64h-44.813334a106.98 106.98 0 0 0-84.98-83.54A106.98 106.98 0 0 0 341.333333 87.48V64a21.333333 21.333333 0 0 0-42.666666 0v23.48a106.98 106.98 0 0 0-83.54 84.98C165.613333 181.666667 128 225.193333 128 277.333333v106.666667h-21.333333a21.333333 21.333333 0 0 0-21.333334 21.333333v64H64a21.333333 21.333333 0 0 0-21.333333 21.333334v384a21.333333 21.333333 0 0 0 42.666666 0V512h213.333334v426.666667H64a21.333333 21.333333 0 0 0 0 42.666666h896a21.333333 21.333333 0 0 0 0-42.666666z m-54.866667-217.78c4.46-16.046667 8.866667-26.293333 12.2-32.366667 3.333333 6.073333 7.74 16.32 12.2 32.366667 6.273333 22.573333 9.133333 43.933333 9.133334 54.226666 0 20.346667-11.26 35.553333-21.333334 35.553334s-21.333333-15.206667-21.333333-35.553334c0-10.293333 2.86-31.653333 9.133333-54.226666zM597.333333 213.333333h256v42.666667H597.333333zM128 426.666667h128v42.666666H128z m213.333333 512V490.666667a21.333333 21.333333 0 0 0-21.333333-21.333334h-21.333333v-64a21.333333 21.333333 0 0 0-21.333334-21.333333H170.666667V277.333333a64.073333 64.073333 0 0 1 64-64 21.333333 21.333333 0 0 0 21.333333-21.333333 64 64 0 0 1 128 0 21.333333 21.333333 0 0 0 21.333333 21.333333 64.073333 64.073333 0 0 1 64 64v661.333334z m-128-256h-42.666666V597.333333h42.666666z m-42.666666 42.666666h42.666666v85.333334h-42.666666z m469.333333-256h-42.666667V384h42.666667z m0 128h-42.666667V512h42.666667z m0 128h-42.666667V640h42.666667z m-42.666667 42.666667h42.666667v85.333333h-42.666667z m128-298.666667h-42.666666V384h42.666666z m0 128h-42.666666V512h42.666666z m0 128h-42.666666V640h42.666666z m-42.666666 42.666667h42.666666v85.333333h-42.666666z m128-298.666667h-42.666667V384h42.666667z m0 128h-42.666667V512h42.666667z m-42.666667 42.666667h42.666667v85.333333h-42.666667z" fill="#2c2c2c" p-id="9967"></path></svg>