<?xml version="1.0" standalone="no"?><!DOCTYPE svg PUBLIC "-//W3C//DTD SVG 1.1//EN" "http://www.w3.org/Graphics/SVG/1.1/DTD/svg11.dtd"><svg t="1699576845861" class="icon" viewBox="0 0 1024 1024" version="1.1" xmlns="http://www.w3.org/2000/svg" p-id="4400" data-spm-anchor-id="a313x.search_index.0.i7.23e43a814m5sWa" xmlns:xlink="http://www.w3.org/1999/xlink" width="200" height="200"><path d="M544.158421 431.069783c65.47727-62.449307 155.302065-117.684306 248.114914-110.526279-85.428671-129.501446-286.606577-151.318334-453.110775-47.8938C178.326455 372.553041 107.897406 553.252543 173.796278 686.191274c33.186843 1.556449 66.905806-5.468548 98.126878-17.565051C387.924123 623.684662 457.450616 513.76725 544.158421 431.069783z" p-id="4401" fill="#A96D1E" data-spm-anchor-id="a313x.search_index.0.i4.23e43a814m5sWa" class="selected"></path><path d="M645.319401 765.535367C805.50673 666.034189 875.995131 486.394832 811.455209 353.61062c-49.782823-8.067746-100.657514 4.637624-145.500838 27.740808C552.681538 439.708534 486.277152 553.960671 390.564253 633.910561c-54.848189 45.815465-126.502136 82.008782-198.565405 83.404572C277.30677 847.104127 478.677057 869.045859 645.319401 765.535367z" p-id="4402" data-spm-anchor-id="a313x.search_index.0.i3.23e43a814m5sWa" fill="#A96D1E" class="selected"></path></svg>