<?xml version="1.0" encoding="UTF-8" standalone="no"?>
<svg
   t="1699578782658"
   class="icon"
   viewBox="0 0 1024 1024"
   version="1.1"
   p-id="13931"
   width="200"
   height="200"
   id="svg2"
   sodipodi:docname="limited-time-4.svg"
   inkscape:version="1.3 (0e150ed, 2023-07-21)"
   xmlns:inkscape="http://www.inkscape.org/namespaces/inkscape"
   xmlns:sodipodi="http://sodipodi.sourceforge.net/DTD/sodipodi-0.dtd"
   xmlns="http://www.w3.org/2000/svg"
   xmlns:svg="http://www.w3.org/2000/svg">
  <defs
     id="defs2" />
  <sodipodi:namedview
     id="namedview2"
     pagecolor="#ffffff"
     bordercolor="#000000"
     borderopacity="0.25"
     inkscape:showpageshadow="2"
     inkscape:pageopacity="0.0"
     inkscape:pagecheckerboard="0"
     inkscape:deskcolor="#d1d1d1"
     inkscape:zoom="1.18"
     inkscape:cx="99.576271"
     inkscape:cy="100"
     inkscape:window-width="1328"
     inkscape:window-height="451"
     inkscape:window-x="0"
     inkscape:window-y="38"
     inkscape:window-maximized="0"
     inkscape:current-layer="svg2" />
  <path
     d="M511.333 127.333c51.868 0 102.15 10.144 149.451 30.15 45.719 19.337 86.792 47.034 122.078 82.321 35.287 35.286 62.983 76.359 82.321 122.078 20.006 47.3 30.15 97.583 30.15 149.451s-10.144 102.15-30.15 149.451c-19.337 45.719-47.034 86.792-82.321 122.078-35.286 35.287-76.359 62.983-122.078 82.321-47.3 20.006-97.583 30.15-149.451 30.15s-102.15-10.144-149.451-30.15c-45.719-19.337-86.792-47.034-122.078-82.321-35.287-35.286-62.983-76.359-82.321-122.078-20.006-47.3-30.15-97.583-30.15-149.451s10.144-102.15 30.15-149.451c19.337-45.719 47.034-86.792 82.321-122.078 35.286-35.287 76.359-62.983 122.078-82.321 47.301-20.006 97.583-30.15 149.451-30.15m0-64c-247.424 0-448 200.576-448 448s200.576 448 448 448 448-200.576 448-448-200.576-448-448-448z"
     fill="#F7270B"
     p-id="13932"
     id="path1"
     style="fill:#2b1100" />
  <path
     d="M702.856 543.333H511.333c-17.673 0-32-14.326-32-32v-286.73c0-17.673 14.327-32 32-32s32 14.327 32 32v254.73h159.522c17.673 0 32 14.327 32 32s-14.326 32-31.999 32z"
     fill="#F7270B"
     p-id="13933"
     id="path2"
     style="fill:#2b1100" />
</svg>
