<?xml version="1.0" encoding="UTF-8" standalone="no"?>
<svg
   t="1699801564738"
   class="icon"
   viewBox="0 0 1024 1024"
   version="1.1"
   p-id="27296"
   width="200"
   height="200"
   id="svg2"
   sodipodi:docname="desk3.svg"
   inkscape:version="1.3 (0e150ed, 2023-07-21)"
   xmlns:inkscape="http://www.inkscape.org/namespaces/inkscape"
   xmlns:sodipodi="http://sodipodi.sourceforge.net/DTD/sodipodi-0.dtd"
   xmlns="http://www.w3.org/2000/svg"
   xmlns:svg="http://www.w3.org/2000/svg">
  <defs
     id="defs2" />
  <sodipodi:namedview
     id="namedview2"
     pagecolor="#ffffff"
     bordercolor="#000000"
     borderopacity="0.25"
     inkscape:showpageshadow="2"
     inkscape:pageopacity="0.0"
     inkscape:pagecheckerboard="0"
     inkscape:deskcolor="#d1d1d1"
     inkscape:zoom="1.18"
     inkscape:cx="99.576271"
     inkscape:cy="100"
     inkscape:window-width="1328"
     inkscape:window-height="451"
     inkscape:window-x="0"
     inkscape:window-y="38"
     inkscape:window-maximized="0"
     inkscape:current-layer="svg2" />
  <path
     d="M 820.88135,413.01695 H 246.50847 c -15.89782,0 -28.71864,-15 -28.71864,-33.6 v -134.4 c 0,-18.6 12.90629,-33.6 28.71864,-33.6 h 574.37288 c 15.81235,0 28.71865,15.1 28.71865,33.6 v 134.4 c 0,18.6 -12.9063,33.6 -28.71865,33.6 z m -545.65423,-67.2 h 516.93559 v -67.2 H 275.22712 Z"
     fill="#2c2c2c"
     p-id="27297"
     id="path1"
     style="fill:#ff0000;stroke-width:0.924511" />
  <path
     d="M 887.89152,278.61695 H 179.49831 c -15.81235,0 -28.71865,-15 -28.71865,-33.6 0,-18.6 12.9063,-33.6 28.71865,-33.6 h 708.39321 c 15.81235,0 28.71865,15.1 28.71865,33.6 0,18.5 -12.82082,33.6 -28.71865,33.6 z m -555.22711,560 c -15.81235,0 -28.71865,-15 -28.71865,-33.6 v -403.2 c 0,-18.5 12.9063,-33.6 28.71865,-33.6 15.89782,0 28.71864,15 28.71864,33.6 v 403.2 c 0,18.5 -12.82082,33.6 -28.71864,33.6 z m 402.06101,0 c -15.81235,0 -28.71864,-15 -28.71864,-33.6 v -403.2 c 0,-18.5 12.90629,-33.6 28.71864,-33.6 15.81235,0 28.71865,15 28.71865,33.6 v 403.2 c 0,18.5 -12.82083,33.6 -28.71865,33.6 z"
     fill="#2c2c2c"
     p-id="27298"
     id="path2"
     style="fill:#ff0000;stroke-width:0.924511" />
</svg>
