<?xml version="1.0" encoding="UTF-8" standalone="no"?>
<svg
   t="1699801564738"
   class="icon"
   viewBox="0 0 1024 1024"
   version="1.1"
   p-id="27296"
   width="200"
   height="200"
   id="svg2"
   sodipodi:docname="desk1.svg"
   inkscape:version="1.3 (0e150ed, 2023-07-21)"
   xmlns:inkscape="http://www.inkscape.org/namespaces/inkscape"
   xmlns:sodipodi="http://sodipodi.sourceforge.net/DTD/sodipodi-0.dtd"
   xmlns="http://www.w3.org/2000/svg"
   xmlns:svg="http://www.w3.org/2000/svg">
  <defs
     id="defs2" />
  <sodipodi:namedview
     id="namedview2"
     pagecolor="#ffffff"
     bordercolor="#000000"
     borderopacity="0.25"
     inkscape:showpageshadow="2"
     inkscape:pageopacity="0.0"
     inkscape:pagecheckerboard="0"
     inkscape:deskcolor="#d1d1d1"
     inkscape:zoom="1.18"
     inkscape:cx="99.576271"
     inkscape:cy="100"
     inkscape:window-width="1328"
     inkscape:window-height="451"
     inkscape:window-x="0"
     inkscape:window-y="38"
     inkscape:window-maximized="0"
     inkscape:current-layer="svg2" />
  <path
     d="M 734.10169,400 H 159.72881 c -15.89782,0 -28.71864,-15 -28.71864,-33.6 V 232 c 0,-18.6 12.90629,-33.6 28.71864,-33.6 h 574.37288 c 15.81235,0 28.71865,15.1 28.71865,33.6 v 134.4 c 0,18.6 -12.9063,33.6 -28.71865,33.6 z M 188.44746,332.8 H 705.38305 V 265.6 H 188.44746 Z"
     fill="#2c2c2c"
     p-id="27297"
     id="path1"
     style="stroke-width:0.924511;fill:#00ff00" />
  <path
     d="M 801.11186,265.6 H 92.718644 C 76.906295,265.6 64,250.6 64,232 64,213.4 76.906295,198.4 92.718644,198.4 H 801.11186 c 15.81235,0 28.71865,15.1 28.71865,33.6 0,18.5 -12.82082,33.6 -28.71865,33.6 z m -555.22711,560 c -15.81235,0 -28.71865,-15 -28.71865,-33.6 V 388.8 c 0,-18.5 12.9063,-33.6 28.71865,-33.6 15.89782,0 28.71864,15 28.71864,33.6 V 792 c 0,18.5 -12.82082,33.6 -28.71864,33.6 z m 402.06101,0 c -15.81235,0 -28.71864,-15 -28.71864,-33.6 V 388.8 c 0,-18.5 12.90629,-33.6 28.71864,-33.6 15.81235,0 28.71865,15 28.71865,33.6 V 792 c 0,18.5 -12.82083,33.6 -28.71865,33.6 z"
     fill="#2c2c2c"
     p-id="27298"
     id="path2"
     style="stroke-width:0.924511;fill:#00ff00" />
</svg>
