<?xml version="1.0" standalone="no"?><!DOCTYPE svg PUBLIC "-//W3C//DTD SVG 1.1//EN" "http://www.w3.org/Graphics/SVG/1.1/DTD/svg11.dtd"><svg t="1699577139982" class="icon" viewBox="0 0 1024 1024" version="1.1" xmlns="http://www.w3.org/2000/svg" p-id="11325" xmlns:xlink="http://www.w3.org/1999/xlink" width="200" height="200"><path d="M94.08 364.736 161.92 432.64c193.024-192.896 507.136-192.96 700.096 0l67.904-67.904C699.392 134.4 324.352 134.464 94.08 364.736z" p-id="11326" fill="#F7270B"></path><path d="M801.856 492.736C724.416 415.296 621.504 372.672 512 372.672c-109.568 0-212.48 42.624-289.856 120.064L289.984 560.64C349.312 501.312 428.096 468.672 512 468.672s162.688 32.64 222.016 91.968L801.856 492.736z" p-id="11327" fill="#F7270B"></path><path d="M673.92 620.736c-89.28-89.28-234.624-89.28-323.904 0L417.92 688.64c51.904-51.84 136.256-51.84 188.096 0L673.92 620.736z" p-id="11328" fill="#F7270B"></path><path d="M512 782.656m-72.384 0a1.131 1.131 0 1 0 144.768 0 1.131 1.131 0 1 0-144.768 0Z" p-id="11329" fill="#F7270B"></path></svg>