<?xml version="1.0" encoding="UTF-8" standalone="no"?>
<svg
   t="1699577139982"
   class="icon"
   viewBox="0 0 1024 1024"
   version="1.1"
   p-id="11325"
   width="200"
   height="200"
   id="svg4"
   sodipodi:docname="wifi3.svg"
   inkscape:version="1.3 (0e150ed, 2023-07-21)"
   xmlns:inkscape="http://www.inkscape.org/namespaces/inkscape"
   xmlns:sodipodi="http://sodipodi.sourceforge.net/DTD/sodipodi-0.dtd"
   xmlns="http://www.w3.org/2000/svg"
   xmlns:svg="http://www.w3.org/2000/svg">
  <defs
     id="defs4" />
  <sodipodi:namedview
     id="namedview4"
     pagecolor="#ffffff"
     bordercolor="#000000"
     borderopacity="0.25"
     inkscape:showpageshadow="2"
     inkscape:pageopacity="0.0"
     inkscape:pagecheckerboard="0"
     inkscape:deskcolor="#d1d1d1"
     inkscape:zoom="1.18"
     inkscape:cx="99.576271"
     inkscape:cy="100"
     inkscape:window-width="1328"
     inkscape:window-height="451"
     inkscape:window-x="0"
     inkscape:window-y="38"
     inkscape:window-maximized="0"
     inkscape:current-layer="svg4" />
  <path
     d="M94.08 364.736 161.92 432.64c193.024-192.896 507.136-192.96 700.096 0l67.904-67.904C699.392 134.4 324.352 134.464 94.08 364.736z"
     p-id="11326"
     fill="#A3F74B"
     id="path1"
     style="fill:#ff0000" />
  <path
     d="M801.856 492.736C724.416 415.296 621.504 372.672 512 372.672c-109.568 0-212.48 42.624-289.856 120.064L289.984 560.64C349.312 501.312 428.096 468.672 512 468.672s162.688 32.64 222.016 91.968L801.856 492.736z"
     p-id="11327"
     fill="#A3F74B"
     id="path2"
     style="fill:#ff0000" />
  <path
     d="M673.92 620.736c-89.28-89.28-234.624-89.28-323.904 0L417.92 688.64c51.904-51.84 136.256-51.84 188.096 0L673.92 620.736z"
     p-id="11328"
     fill="#A3F74B"
     id="path3"
     style="fill:#ff0000" />
  <path
     d="M512 782.656m-72.384 0a1.131 1.131 0 1 0 144.768 0 1.131 1.131 0 1 0-144.768 0Z"
     p-id="11329"
     fill="#A3F74B"
     id="path4"
     style="fill:#ff0000" />
</svg>
