<?xml version="1.0" encoding="UTF-8" standalone="no"?>
<svg
   t="1699578348308"
   class="icon"
   viewBox="0 0 1024 1024"
   version="1.1"
   p-id="12759"
   width="200"
   height="200"
   id="svg3"
   sodipodi:docname="music4.svg"
   inkscape:version="1.3 (0e150ed, 2023-07-21)"
   xmlns:inkscape="http://www.inkscape.org/namespaces/inkscape"
   xmlns:sodipodi="http://sodipodi.sourceforge.net/DTD/sodipodi-0.dtd"
   xmlns="http://www.w3.org/2000/svg"
   xmlns:svg="http://www.w3.org/2000/svg">
  <defs
     id="defs3" />
  <sodipodi:namedview
     id="namedview3"
     pagecolor="#ffffff"
     bordercolor="#000000"
     borderopacity="0.25"
     inkscape:showpageshadow="2"
     inkscape:pageopacity="0.0"
     inkscape:pagecheckerboard="0"
     inkscape:deskcolor="#d1d1d1"
     inkscape:zoom="1.18"
     inkscape:cx="99.576271"
     inkscape:cy="100"
     inkscape:window-width="1328"
     inkscape:window-height="451"
     inkscape:window-x="0"
     inkscape:window-y="38"
     inkscape:window-maximized="0"
     inkscape:current-layer="svg3" />
  <path
     d="M130.264557 870.035707a122.453333 160 68.891 1 0 298.527032-115.245873 122.453333 160 68.891 1 0-298.527032 115.245873Z"
     fill="#A3F74B"
     opacity=".99"
     p-id="12760"
     id="path1"
     style="fill:#b3b3b3" />
  <path
     d="M591.0825 774.046673a122.453333 160 68.891 1 0 298.527032-115.245872 122.453333 160 68.891 1 0-298.527032 115.245872Z"
     fill="#A3F74B"
     opacity=".99"
     p-id="12761"
     id="path2"
     style="fill:#b3b3b3" />
  <path
     d="M783.786667 98.56l-355.413334 113.066667A86.4 86.4 0 0 0 366.933333 294.4v495.786667h68.266667V388.266667c0-8.106667 5.12-15.36 13.226667-17.493334l355.84-113.493333c1.706667-0.426667 3.413333-0.853333 5.12-0.853333 8.96 0 18.346667 7.253333 18.346666 18.346666v418.133334h68.266667v-512c0-58.026667-56.32-99.413333-112.213333-82.346667z"
     fill="#A3F74B"
     opacity=".99"
     p-id="12762"
     id="path3"
     style="fill:#b3b3b3" />
</svg>
